<?xml version="1.0" encoding="iso-8859-1"?>
<!-- Uploaded to: SVG Repo, www.svgrepo.com, Generator: SVG Repo Mixer Tools -->
<svg height="800px" width="800px" version="1.1" id="Layer_1" xmlns="http://www.w3.org/2000/svg" xmlns:xlink="http://www.w3.org/1999/xlink" 
	 viewBox="0 0 473.931 473.931" xml:space="preserve">
<circle style="fill:#EDBF00;" cx="236.966" cy="236.966" r="236.966"/>
<path style="fill:#F37C2A;" d="M345.963,291.408c9.156-40.643,16.501-83.101,24.49-124.919
	c-41.803,12.561-97.941,17.077-151.859,13.47c-8.127,38.574-14.522,73.619-22.046,113.899c-2.253,12.048-3.117,26.941-7.349,36.737
	c-14.971,34.637-101.222,33.852-102.876-9.8c-1.658-43.7,78.977-47.707,99.202-18.368c11.468-55.479,21.317-112.586,33.07-167.784
	c61.877,4.404,119.037-4.539,169.008-15.921c-3.027,24.662-10.896,64.493-18.372,101.649c-7.012,34.881-10.032,73.713-19.592,99.202
	c-12.198,32.516-94.682,33.84-101.649-4.898C239.147,265.553,326.798,261.122,345.963,291.408z"/>
</svg>