<?xml version="1.0" encoding="iso-8859-1"?>
<!-- Uploaded to: SVG Repo, www.svgrepo.com, Generator: SVG Repo Mixer Tools -->
<!DOCTYPE svg PUBLIC "-//W3C//DTD SVG 1.1//EN" "http://www.w3.org/Graphics/SVG/1.1/DTD/svg11.dtd">
<svg fill="#000000" height="800px" width="800px" version="1.1" id="Capa_1" xmlns="http://www.w3.org/2000/svg" xmlns:xlink="http://www.w3.org/1999/xlink" 
	 viewBox="0 0 60 60" xml:space="preserve">
<g>
	<path d="M1,27.044l20.06-0.013l0.01,0.05l17.936-0.007l0.013-0.062L59,27V27V14l-18.38,0.012C39.292,18.687,34.966,22,30.038,22
		c-4.914,0-9.237-3.318-10.576-8L1.038,14.012L1,27.044z"/>
	<path d="M30.038,51c3.845,0,7.235-2.469,8.484-6.014l-16.965,0.006C22.808,48.533,26.198,51,30.038,51z"/>
	<path d="M1,29.089V43l58-0.022V29.067l-18.401,0.007C39.25,33.715,34.944,37,30.038,37c-4.899,0-9.207-3.282-10.559-7.918L1,29.089
		"/>
	<polygon points="58.391,12 45.391,0 14.609,0 1.596,12.012 4.547,12.01 15.391,2 44.609,2 55.444,12.002 	"/>
	<path d="M1,45v15l58-0.023V45l-18.38,0.012C39.292,49.687,34.966,53,30.038,53c-4.917,0-9.24-3.305-10.575-7.967L1.001,45.044"/>
	<path d="M30.038,35c3.813,0,7.179-2.428,8.453-5.925l-16.903,0.006C22.864,32.574,26.23,35,30.038,35z"/>
</g>
</svg>