<?xml version="1.0" ?>

<!-- Uploaded to: SVG Repo, www.svgrepo.com, Generator: SVG Repo Mixer Tools -->
<svg width="800px" height="800px" viewBox="0 0 512 512" id="Layer_1" version="1.1" xml:space="preserve" xmlns="http://www.w3.org/2000/svg" xmlns:xlink="http://www.w3.org/1999/xlink">

<style type="text/css">
	.st0{fill:#333333;}
</style>

<g>

<path class="st0" d="M36.7,234.2C36.7,234.3,36.7,234.3,36.7,234.2c-0.1,0.3-0.2,0.4-0.2,0.6c0,0,0,0,0,0.1   c-0.1,0.2-0.1,0.4-0.1,0.6c0,0.1,0,0.1,0,0.2c0,0.2-0.1,0.3-0.1,0.5c0,0.2,0,0.5,0,0.7s0,0.5,0,0.7c0,0.2,0,0.3,0.1,0.5   c0,0.1,0,0.1,0,0.2c0,0.2,0.1,0.4,0.1,0.6c0,0,0,0,0,0.1c0.1,0.2,0.1,0.4,0.2,0.6c0,0,0,0,0,0.1c0.1,0.2,0.2,0.4,0.2,0.5   c0,0,0,0.1,0,0.1c0.1,0.2,0.2,0.3,0.3,0.5c0,0,0,0.1,0.1,0.1c0.1,0.1,0.2,0.3,0.3,0.4c0,0,0.1,0.1,0.1,0.1c0.1,0.2,0.3,0.3,0.5,0.5   l212.9,212.9c0.2,0.2,0.4,0.4,0.6,0.5c0,0,0.1,0.1,0.1,0.1c0.3,0.2,0.5,0.4,0.8,0.5c0,0,0.1,0,0.1,0.1c0.3,0.2,0.6,0.3,0.9,0.4   c0.1,0,0.1,0,0.2,0.1c0.3,0.1,0.7,0.2,1,0.3c0,0,0.1,0,0.1,0c0.4,0.1,0.7,0.1,1.1,0.1c0,0,0,0,0,0c0,0,0,0,0,0c0,0,0,0,0,0   c0.4,0,0.7,0,1.1-0.1c0,0,0.1,0,0.1,0c0.3-0.1,0.7-0.2,1-0.3c0.1,0,0.1,0,0.2-0.1c0.3-0.1,0.6-0.3,0.9-0.4c0,0,0.1,0,0.1-0.1   c0.3-0.2,0.6-0.3,0.8-0.6c0,0,0,0,0.1-0.1c0.2-0.2,0.4-0.3,0.6-0.5l212.9-212.9c0.2-0.2,0.3-0.3,0.5-0.5c0,0,0.1-0.1,0.1-0.1   c0.1-0.1,0.2-0.3,0.3-0.4c0,0,0-0.1,0.1-0.1c0.1-0.2,0.2-0.3,0.3-0.5c0,0,0-0.1,0-0.1c0.1-0.2,0.2-0.3,0.2-0.5c0,0,0,0,0-0.1   c0.1-0.2,0.1-0.4,0.2-0.6c0,0,0,0,0-0.1c0.1-0.2,0.1-0.4,0.1-0.6c0-0.1,0-0.1,0-0.2c0-0.2,0.1-0.3,0.1-0.5c0-0.2,0-0.5,0-0.7   s0-0.5,0-0.7c0-0.2,0-0.3-0.1-0.5c0-0.1,0-0.1,0-0.2c0-0.2-0.1-0.4-0.1-0.6c0,0,0,0,0-0.1c-0.1-0.2-0.1-0.4-0.2-0.6c0,0,0,0,0-0.1   c-0.1-0.2-0.2-0.4-0.2-0.5c0,0,0-0.1,0-0.1c-0.1-0.2-0.2-0.3-0.3-0.5c0,0,0-0.1-0.1-0.1c-0.1-0.1-0.2-0.3-0.3-0.4   c0,0-0.1-0.1-0.1-0.1c-0.1-0.2-0.3-0.3-0.5-0.5l-91.9-91.9c-1.3-1.3-3.1-2.1-4.9-2.1H135c0,0-0.1,0-0.1,0c-0.1,0-0.3,0-0.4,0   c-0.1,0-0.2,0-0.3,0c-0.1,0-0.3,0-0.4,0.1c-0.1,0-0.2,0-0.3,0.1c-0.1,0-0.3,0.1-0.4,0.1c-0.1,0-0.2,0-0.3,0.1   c-0.1,0-0.3,0.1-0.4,0.1c-0.1,0-0.2,0.1-0.3,0.1c-0.1,0.1-0.2,0.1-0.3,0.2c-0.1,0-0.2,0.1-0.3,0.2c-0.1,0.1-0.2,0.1-0.3,0.2   c-0.1,0.1-0.2,0.1-0.3,0.2c0,0-0.1,0.1-0.1,0.1c0,0-0.1,0.1-0.1,0.1c-0.1,0.1-0.2,0.2-0.3,0.2c-0.1,0.1-0.2,0.2-0.3,0.2   c0,0-0.1,0.1-0.1,0.1L38.2,232c-0.2,0.2-0.3,0.3-0.5,0.5c0,0-0.1,0.1-0.1,0.1c-0.1,0.1-0.2,0.3-0.3,0.4c0,0,0,0.1-0.1,0.1   c-0.1,0.2-0.2,0.3-0.3,0.5c0,0,0,0.1,0,0.1C36.8,233.9,36.7,234.1,36.7,234.2z M134.3,155.7l55.2,74.2H60L134.3,155.7z    M297.4,243.9L255.8,420l-43.5-176.1H297.4z M215.4,229.9l40.4-70.6l38.6,70.6H215.4z M311.8,243.9H452L268.5,427.4L311.8,243.9z    M267.8,152h92.9l-53.5,72L267.8,152z M202.6,224.2L149,152h95L202.6,224.2z M197.9,243.9l45.3,183.1L60,243.9H197.9z M452,229.9   H320.2l56.2-75.6L452,229.9z"/>

<path class="st0" d="M380.2,57.3c-2.7-2.7-7.2-2.7-9.9,0l-9.1,9.1l-9.1-9.1c-2.7-2.7-7.2-2.7-9.9,0s-2.7,7.2,0,9.9l9.1,9.1   l-9.1,9.1c-2.7,2.7-2.7,7.2,0,9.9c1.4,1.4,3.2,2.1,4.9,2.1s3.6-0.7,4.9-2.1l9.1-9.1l9.1,9.1c1.4,1.4,3.2,2.1,4.9,2.1   c1.8,0,3.6-0.7,4.9-2.1c2.7-2.7,2.7-7.2,0-9.9l-9.1-9.1l9.1-9.1C383,64.4,383,60,380.2,57.3z"/>

<path class="st0" d="M175,57.3c-2.7-2.7-7.2-2.7-9.9,0l-9.1,9.1l-9.1-9.1c-2.7-2.7-7.2-2.7-9.9,0c-2.7,2.7-2.7,7.2,0,9.9l9.1,9.1   l-9.1,9.1c-2.7,2.7-2.7,7.2,0,9.9c1.4,1.4,3.2,2.1,4.9,2.1s3.6-0.7,4.9-2.1l9.1-9.1l9.1,9.1c1.4,1.4,3.2,2.1,4.9,2.1   s3.6-0.7,4.9-2.1c2.7-2.7,2.7-7.2,0-9.9l-9.1-9.1l9.1-9.1C177.7,64.4,177.7,60,175,57.3z"/>

<path class="st0" d="M455.1,127.7v-12.9c0-3.9-3.1-7-7-7s-7,3.1-7,7v12.9h-12.9c-3.9,0-7,3.1-7,7s3.1,7,7,7h12.9v12.9   c0,3.9,3.1,7,7,7s7-3.1,7-7v-12.9H468c3.9,0,7-3.1,7-7s-3.1-7-7-7H455.1z"/>

<path class="st0" d="M44,141.7h12.9v12.9c0,3.9,3.1,7,7,7s7-3.1,7-7v-12.9h12.9c3.9,0,7-3.1,7-7s-3.1-7-7-7H70.9v-12.9   c0-3.9-3.1-7-7-7s-7,3.1-7,7v12.9H44c-3.9,0-7,3.1-7,7S40.1,141.7,44,141.7z"/>

</g>

</svg>