<?xml version="1.0" encoding="iso-8859-1"?>
<!-- Uploaded to: SVG Repo, www.svgrepo.com, Generator: SVG Repo Mixer Tools -->
<svg version="1.1" id="Layer_1" xmlns="http://www.w3.org/2000/svg" xmlns:xlink="http://www.w3.org/1999/xlink" 
	 viewBox="0 0 512 512" xml:space="preserve">
<circle style="fill:#273B7A;" cx="256" cy="256" r="256"/>
<path style="fill:#121149;" d="M286.029,133.18l-9.869,4.942l-44.297-44.297l5.086,23.249l27.112,27.112l-44.26,22.171
	l-21.413,30.501l45.547,45.547v31.873l-18.061-18.061l-7.04,54.555l80.551,80.551l-74.043,33.62l81.92,81.922
	c87.747-17.836,159.185-80.549,189.309-163.14L286.029,133.18z"/>
<polygon style="fill:#FFEDB5;" points="231.862,93.827 250.916,124.554 286.029,133.18 262.692,160.797 265.338,196.856 
	231.862,183.198 198.385,196.856 201.032,160.797 177.697,133.18 212.808,124.554 "/>
<polygon style="fill:#FEE187;" points="231.862,93.827 250.916,124.554 286.029,133.18 262.692,160.797 265.338,196.856 
	231.862,183.198 "/>
<path style="fill:#FFC61B;" d="M225.871,256.217c0,0-10.474-0.684-10.299,9.042v53.039c0,14.105,5.604,27.632,15.579,37.605
	l7.373,7.373v38.419h70.68v-36.4l5.951-5.951c10.885-10.885,16.999-25.648,16.999-41.043v-71.521
	c0-6.284-4.842-11.762-11.123-11.952c-6.499-0.195-11.828,5.015-11.828,11.471v23.599h-2.975v-30.117
	c0-5.825-4.158-11.04-9.933-11.804c-6.99-0.926-13.017,4.555-13.017,11.374V269.9h-3.718v-38.391c0-5.825-4.158-11.04-9.933-11.804
	c-6.99-0.926-13.019,4.555-13.019,11.373V269.9h-3.718V175.8c0-5.825-4.158-11.04-9.933-11.804
	c-6.99-0.926-13.019,4.555-13.019,11.373v132.767h-4.067L225.871,256.217z"/>
<path style="fill:#EAA22F;" d="M321.034,234.827c-6.499-0.195-11.828,5.015-11.828,11.471v23.599h-2.975V239.78
	c0-5.827-4.158-11.04-9.933-11.804c-6.99-0.926-13.017,4.555-13.017,11.373v30.548h-3.718v-38.391c0-5.825-4.158-11.04-9.933-11.804
	c-0.138-0.017-0.274-0.017-0.41-0.031v182.027h39.988v-36.4l5.951-5.951c10.885-10.885,16.999-25.648,16.999-41.043v-71.527
	C332.157,240.493,327.315,235.015,321.034,234.827z"/>
<rect x="225.349" y="383.052" style="fill:#D35933;" width="96.539" height="41.898"/>
<rect x="269.222" y="383.052" style="fill:#B54324;" width="52.669" height="41.896"/>
</svg>